<?xml version="1.0" standalone="no"?>
<!DOCTYPE svg PUBLIC "-//W3C//DTD SVG 20010904//EN"
 "http://www.w3.org/TR/2001/REC-SVG-20010904/DTD/svg10.dtd">
<svg version="1.0" xmlns="http://www.w3.org/2000/svg"
 width="547.000000pt" height="613.000000pt" viewBox="0 0 547.000000 613.000000"
 preserveAspectRatio="xMidYMid meet">

<g transform="translate(0.000000,613.000000) scale(0.100000,-0.100000)"
fill="#000000" stroke="none">
<path d="M2282 6013 c-5 -10 -12 -61 -15 -113 -4 -52 -13 -139 -22 -194 -8
-54 -12 -109 -9 -122 13 -51 73 -55 98 -6 21 41 39 175 40 298 1 97 -2 115
-18 133 -23 26 -62 27 -74 4z"/>
<path d="M1118 5639 l-76 -21 118 -346 c65 -191 186 -544 269 -785 83 -241
151 -440 151 -443 0 -2 -24 -4 -52 -4 -132 0 -263 -45 -331 -114 -94 -94 -131
-258 -88 -395 44 -142 156 -229 305 -239 170 -11 353 95 432 250 28 56 54 156
54 213 0 27 -66 229 -199 610 l-200 570 42 3 c174 14 438 -146 773 -470 61
-60 116 -108 123 -108 15 0 -23 74 -99 189 -58 89 -62 99 -65 161 -7 130 -86
281 -253 480 -167 199 -386 352 -616 430 -119 40 -191 45 -288 19z m437 -329
c213 -73 510 -308 594 -470 l33 -65 -113 111 c-201 197 -371 299 -598 359 -82
22 -85 24 -98 60 l-13 38 70 -7 c39 -4 95 -16 125 -26z"/>
<path d="M2703 5635 c-24 -17 -89 -119 -117 -182 -22 -50 -16 -73 20 -73 30 0
86 54 118 115 17 31 18 38 5 47 -11 8 -11 9 4 4 15 -5 22 4 18 27 0 4 4 7 9 7
14 0 13 43 -2 58 -16 16 -29 15 -55 -3z"/>
<path d="M3148 5487 c-35 -29 -109 -87 -164 -129 -127 -96 -176 -151 -172
-193 5 -46 34 -43 124 16 151 99 317 252 330 305 18 71 -35 72 -118 1z"/>
<path d="M3981 5478 c-18 -45 -651 -1441 -656 -1446 -3 -3 -30 18 -60 47 -109
104 -263 146 -383 107 -104 -35 -211 -137 -248 -237 -24 -65 -21 -171 6 -243
45 -119 169 -205 327 -228 147 -21 281 23 379 124 49 50 67 88 364 758 172
388 316 709 320 713 10 11 74 -95 107 -175 89 -220 82 -434 -23 -748 -68 -200
-163 -370 -207 -370 -6 0 -8 -2 -6 -5 3 -2 27 2 54 9 203 54 357 231 415 479
87 374 21 799 -170 1084 -34 51 -55 70 -120 107 -43 25 -82 46 -85 46 -3 0 -9
-10 -14 -22z"/>
<path d="M3428 4863 c-14 -16 -32 -41 -41 -57 l-15 -30 -21 42 c-14 28 -28 42
-42 42 -29 0 -35 -28 -10 -54 l22 -23 -42 -7 c-54 -9 -63 -14 -48 -32 7 -8 30
-14 56 -14 37 0 44 -3 39 -16 -3 -9 -9 -34 -13 -56 -7 -47 7 -46 27 2 7 16 15
30 19 30 3 -1 16 -23 29 -50 13 -28 30 -50 38 -50 20 0 18 44 -6 89 l-19 38
60 6 c91 8 96 24 11 34 l-50 6 29 45 c47 75 31 112 -23 55z"/>
<path d="M1960 4529 c-11 -20 -9 -61 6 -116 6 -21 5 -21 -37 -7 -49 17 -69 13
-69 -15 0 -14 9 -23 28 -27 15 -3 31 -7 36 -8 4 -1 -3 -16 -18 -33 -14 -17
-26 -36 -26 -42 0 -20 44 -11 71 15 l26 25 27 -45 c34 -59 49 -59 32 -1 -8 25
-13 45 -12 45 1 0 26 -9 56 -19 57 -20 82 -18 73 5 -6 17 -74 54 -98 54 -23 0
-19 9 31 62 25 27 43 52 40 55 -4 4 -27 -8 -51 -25 -25 -18 -47 -32 -49 -32
-1 0 -8 24 -15 54 -15 66 -34 87 -51 55z"/>
<path d="M2088 4106 c-10 -9 -22 -35 -28 -57 l-11 -41 -24 26 c-13 14 -31 26
-40 26 -22 0 -19 -28 5 -42 19 -12 18 -13 -12 -28 -41 -20 -36 -35 12 -34 40
1 40 1 40 -38 0 -24 4 -37 10 -33 6 3 10 17 10 31 0 31 6 30 37 -6 26 -32 53
-40 53 -16 0 8 -13 28 -29 45 l-28 30 48 16 c62 21 65 40 5 32 l-45 -6 10 29
c6 16 9 41 7 56 -3 26 -4 27 -20 10z"/>
<path d="M3946 3168 c-97 -163 -145 -354 -126 -501 12 -96 33 -148 137 -341
l86 -159 -16 -41 c-9 -22 -35 -86 -57 -141 -88 -211 -137 -435 -127 -570 4
-58 13 -88 47 -156 63 -124 126 -215 214 -306 169 -177 306 -201 594 -101 94
32 117 37 127 26 25 -28 96 -150 115 -198 44 -112 14 -231 -59 -238 -31 -3
-33 -2 -27 20 39 134 32 164 -51 204 -78 39 -171 41 -222 5 -41 -30 -71 -92
-71 -151 0 -109 124 -229 255 -247 62 -8 124 12 209 67 124 81 171 159 147
243 -6 23 -49 118 -94 210 -76 157 -80 169 -63 179 55 31 96 82 115 143 30 95
44 217 39 321 -4 80 -10 104 -37 159 -67 136 -178 222 -359 279 -105 33 -169
33 -247 1 -33 -14 -64 -25 -70 -25 -12 1 -135 202 -135 220 0 7 22 76 49 154
64 186 84 286 85 421 0 155 -28 242 -130 397 -80 120 -194 218 -253 218 -15 0
-35 -25 -75 -92z m179 -230 c89 -93 98 -137 70 -333 -14 -100 -44 -209 -68
-253 -13 -22 -15 -19 -64 70 -87 158 -93 172 -93 210 0 56 48 329 61 344 20
24 42 15 94 -38z m118 -1113 l38 -65 -25 -33 c-30 -40 -76 -209 -76 -282 0
-42 6 -60 31 -95 65 -89 162 -170 206 -170 37 0 37 20 -1 59 -47 48 -48 92 -5
167 16 29 33 55 37 58 4 2 67 -95 140 -216 103 -169 131 -223 120 -229 -44
-29 -126 -41 -228 -36 -117 7 -188 23 -252 58 -45 25 -65 58 -139 229 -29 66
-33 86 -33 165 -1 88 1 95 69 273 38 100 72 182 75 182 3 0 23 -29 43 -65z
m564 -225 c36 -16 46 -27 76 -92 40 -84 67 -169 67 -211 0 -39 -25 -88 -69
-138 l-36 -40 -134 217 c-74 119 -134 224 -135 232 0 8 19 25 44 38 52 28 114
25 187 -6z"/>
<path d="M1746 3006 c-3 -13 -60 -293 -126 -623 -146 -730 -127 -649 -148
-630 -30 26 -96 54 -156 67 -109 22 -190 -3 -263 -83 -69 -75 -88 -120 -88
-212 0 -69 4 -86 27 -125 36 -62 73 -94 141 -126 54 -24 67 -26 155 -22 84 3
104 8 152 33 67 37 140 108 162 161 10 21 69 309 133 639 64 330 118 606 121
614 4 11 8 11 22 -2 11 -11 97 -32 229 -57 271 -52 414 -84 483 -108 75 -27
201 -79 208 -87 3 -3 -40 -240 -97 -525 l-104 -520 -27 20 c-41 29 -124 59
-184 66 -82 10 -154 -15 -216 -76 -158 -154 -132 -379 56 -471 59 -29 74 -32
153 -32 74 0 98 5 146 27 76 34 126 76 163 134 28 43 41 98 152 672 67 344
123 626 124 628 2 1 9 -4 16 -13 21 -25 27 -18 34 43 4 31 13 82 21 112 28
105 17 125 -91 160 -38 13 -157 58 -264 101 -169 68 -243 90 -551 169 -196 49
-360 90 -366 90 -6 0 -14 -11 -17 -24z"/>
<path d="M1440 2565 c0 -23 -2 -24 -25 -13 -34 15 -44 2 -17 -24 l22 -22 -28
-29 -27 -29 31 15 31 16 -5 -47 c-5 -43 -4 -46 11 -33 10 7 17 26 17 42 0 35
0 35 44 8 39 -23 48 -13 15 16 -20 19 -20 19 15 37 20 10 36 23 36 28 0 13
-46 13 -71 0 -17 -10 -19 -7 -19 25 0 24 -4 35 -15 35 -9 0 -15 -9 -15 -25z"/>
<path d="M3604 2305 c-7 -19 -14 -57 -14 -85 0 -27 -3 -50 -6 -50 -3 0 -20 11
-36 26 -38 31 -81 30 -86 -2 -2 -17 5 -25 34 -36 l38 -15 -41 -27 c-23 -15
-44 -34 -47 -41 -8 -22 36 -25 81 -5 l43 19 10 -42 c19 -71 21 -77 32 -77 6 0
8 22 6 55 -3 53 -2 54 17 39 70 -51 96 -66 110 -61 29 12 0 57 -59 94 l-38 25
33 20 c127 75 129 98 5 52 l-38 -15 6 54 c13 98 -19 145 -50 72z"/>
<path d="M1325 2274 c-14 -15 -32 -51 -42 -80 -9 -30 -19 -54 -22 -54 -3 0
-13 13 -23 29 -20 36 -63 65 -83 57 -24 -9 -18 -53 10 -72 14 -9 25 -20 25
-24 0 -4 -20 -13 -45 -20 -91 -25 -76 -67 20 -57 l55 6 0 -70 c0 -38 4 -69 9
-69 5 0 15 25 22 56 l14 55 43 -60 c48 -68 82 -82 82 -33 0 29 -17 59 -57 103
l-24 27 53 12 c139 31 156 50 44 50 l-74 0 24 58 c41 100 24 146 -31 86z"/>
<path d="M3287 977 c-8 -22 16 -50 39 -45 13 2 19 12 19 28 0 20 -6 26 -26 28
-16 2 -29 -3 -32 -11z"/>
<path d="M3604 625 c-15 -38 29 -72 52 -40 9 13 10 23 3 36 -12 23 -47 25 -55
4z"/>
<path d="M2960 498 c-11 -18 -21 -37 -23 -42 -2 -6 -18 0 -35 13 -66 47 -113
0 -52 -51 l33 -27 -28 -37 c-21 -28 -26 -41 -18 -53 19 -30 48 -24 78 14 27
36 27 36 49 17 37 -34 65 -45 82 -31 23 19 16 42 -23 75 l-37 31 23 36 c27 45
25 81 -6 85 -16 2 -28 -6 -43 -30z"/>
<path d="M3421 126 c-17 -20 3 -56 30 -56 24 0 36 27 22 49 -14 22 -37 25 -52
7z"/>
</g>
</svg>
