<?xml version="1.0" standalone="no"?>
<!DOCTYPE svg PUBLIC "-//W3C//DTD SVG 20010904//EN"
 "http://www.w3.org/TR/2001/REC-SVG-20010904/DTD/svg10.dtd">
<svg version="1.0" xmlns="http://www.w3.org/2000/svg"
 width="260.000000pt" height="285.000000pt" viewBox="0 0 260.000000 285.000000"
 preserveAspectRatio="xMidYMid meet">

<g transform="translate(0.000000,285.000000) scale(0.100000,-0.100000)"
fill="#000000" stroke="none">
<path d="M2050 2546 c0 -2 11 -6 25 -8 13 -3 22 -1 19 3 -5 9 -44 13 -44 5z"/>
<path d="M1952 2513 c-24 -8 -41 -17 -39 -19 4 -5 97 26 97 32 0 6 -11 4 -58
-13z"/>
<path d="M2071 2519 c5 -3 -9 -11 -31 -18 -22 -6 -46 -9 -52 -5 -7 5 -8 3 -3
-6 5 -8 3 -11 -6 -8 -14 5 -69 -17 -69 -28 0 -2 14 2 30 11 42 22 38 11 -6
-14 -40 -24 -48 -26 -38 -9 4 7 3 8 -5 4 -6 -4 -9 -11 -6 -16 3 -5 -5 -14 -17
-21 -13 -7 -50 -37 -83 -68 l-60 -55 55 59 55 60 -57 -54 c-31 -30 -55 -58
-52 -62 7 -12 -37 -79 -49 -72 -5 3 -7 1 -4 -4 4 -6 -4 -53 -17 -104 -13 -52
-32 -136 -41 -187 l-17 -93 -81 -41 c-44 -22 -116 -62 -160 -89 -43 -27 -83
-47 -87 -44 -5 3 -12 0 -16 -6 -5 -8 -3 -9 7 -4 12 8 12 6 0 -8 -16 -20 -36
-23 -25 -4 5 8 2 8 -9 -2 -20 -16 -23 -26 -4 -15 6 4 -22 -24 -63 -63 -91 -85
-123 -142 -144 -248 -44 -235 -22 -408 62 -499 l27 -29 -37 27 c-21 15 -37 31
-37 34 1 4 1 14 0 22 -1 13 -2 13 -12 0 -8 -12 -9 -9 -4 10 4 18 3 21 -3 11
-8 -11 -13 -8 -26 15 -8 16 -15 24 -16 18 0 -18 54 -87 92 -116 41 -32 159
-94 236 -125 47 -20 52 -25 53 -55 2 -31 2 -31 6 -5 4 23 8 27 26 21 12 -3 24
-8 26 -10 7 -7 -19 -160 -35 -208 -22 -63 -74 -108 -122 -104 -19 2 -37 8 -39
15 -5 13 53 47 66 39 17 -11 28 19 26 66 -3 52 -42 129 -78 152 -28 18 -136
56 -157 55 -8 0 1 -7 20 -14 19 -7 28 -14 19 -14 -9 -1 -34 -12 -55 -26 l-39
-25 35 31 c19 17 26 27 15 21 -11 -6 -31 -23 -45 -38 -14 -15 -19 -24 -12 -20
16 9 15 6 -4 -40 -21 -51 -13 -132 20 -195 21 -42 22 -47 6 -37 -10 7 -16 16
-14 20 3 5 1 7 -5 6 -5 -2 -17 6 -26 17 -16 20 -16 20 -6 0 11 -25 45 -56 63
-59 7 -1 29 -11 48 -23 50 -30 105 -43 188 -43 81 0 134 18 158 55 17 26 56
157 79 266 l17 77 66 4 c81 4 130 34 234 140 91 93 121 156 126 269 5 102 -6
143 -66 246 -56 95 -99 136 -171 163 -41 15 -61 28 -61 39 1 27 26 191 31 194
2 2 42 25 89 52 175 99 309 220 363 327 54 108 78 266 57 385 -16 95 -26 108
-88 108 -28 0 -46 -3 -41 -6z m-31 -198 c15 -29 12 -138 -4 -170 -22 -42 -186
-193 -245 -224 l-52 -29 5 34 c31 205 25 188 85 252 53 55 177 156 193 156 4
0 12 -9 18 -19z m-496 -804 c-6 -39 -10 -47 -28 -48 -21 0 -21 -1 -1 -9 l20
-9 -20 0 c-11 -1 -35 -10 -53 -21 -38 -23 -46 -25 -36 -7 4 7 3 9 -2 4 -5 -5
-9 -14 -9 -19 0 -6 -6 -13 -14 -16 -8 -3 -11 0 -7 7 11 17 0 13 -15 -6 -12
-15 -12 -16 1 -8 19 10 10 1 -55 -56 l-50 -43 45 49 45 50 -45 -42 c-43 -41
-45 -45 -48 -108 -3 -66 20 -188 40 -212 23 -28 38 -14 38 34 0 34 6 53 22 70
26 27 45 30 51 6 4 -14 5 -13 6 3 1 15 10 24 27 28 15 4 29 5 32 1 3 -3 0 -5
-7 -5 -7 0 -9 -4 -6 -10 10 -17 -48 -380 -61 -380 -61 0 -211 122 -265 215
-35 62 -36 91 -3 208 28 101 57 158 101 198 33 31 223 142 230 135 3 -3 3 -17
-1 -31 -4 -17 -14 -25 -29 -26 -22 -2 -22 -2 1 -6 23 -4 23 -5 5 -19 -16 -13
-15 -13 10 -2 15 6 23 14 18 17 -6 4 -6 12 -1 21 6 8 10 24 10 35 0 16 47 57
58 50 1 -1 -1 -23 -4 -48z m197 -395 c51 -59 55 -83 25 -178 -33 -100 -58
-142 -99 -158 -38 -16 -124 -31 -92 -16 11 5 16 9 10 9 -5 1 -3 6 5 12 12 8
10 9 -7 4 -13 -3 -23 -4 -23 0 0 10 50 349 55 371 4 20 8 21 46 10 28 -7 54
-25 80 -54z"/>
<path d="M1992 2263 c-1 -28 -5 -60 -8 -70 -5 -17 -5 -17 6 0 6 9 9 41 7 70
l-3 52 -2 -52z"/>
<path d="M2033 2240 c0 -36 2 -50 4 -32 2 17 2 47 0 65 -2 17 -4 3 -4 -33z"/>
<path d="M1915 2106 c-33 -34 -82 -82 -110 -106 -27 -24 -41 -37 -30 -29 66
46 225 201 203 199 -1 -1 -30 -29 -63 -64z"/>
<path d="M1945 2068 l-70 -73 73 70 c67 64 77 75 69 75 -1 0 -34 -33 -72 -72z"/>
<path d="M1855 1990 c-4 -6 -30 -24 -58 -40 -29 -16 -47 -30 -41 -30 13 0 100
55 108 69 4 6 5 11 2 11 -3 0 -8 -5 -11 -10z"/>
<path d="M1514 1534 c-18 -14 -18 -15 4 -4 12 6 22 13 22 15 0 8 -5 6 -26 -11z"/>
<path d="M1521 1494 c0 -11 3 -14 6 -6 3 7 2 16 -1 19 -3 4 -6 -2 -5 -13z"/>
<path d="M1334 1411 c-38 -26 -78 -59 -89 -72 -11 -13 -2 -8 20 10 22 19 66
52 99 73 32 21 55 38 49 38 -5 0 -41 -22 -79 -49z"/>
<path d="M1221 1294 c0 -11 3 -14 6 -6 3 7 2 16 -1 19 -3 4 -6 -2 -5 -13z"/>
<path d="M1213 1225 c0 -27 2 -38 4 -22 2 15 2 37 0 50 -2 12 -4 0 -4 -28z"/>
<path d="M1253 1200 c0 -25 2 -35 4 -22 2 12 2 32 0 45 -2 12 -4 2 -4 -23z"/>
<path d="M1222 1140 c-1 -19 5 -48 13 -65 12 -24 13 -25 8 -5 -4 14 -10 43
-14 65 l-6 40 -1 -35z"/>
<path d="M1446 1142 c6 -4 14 -14 17 -22 4 -10 6 -8 6 8 1 15 -5 22 -16 22
-11 0 -14 -3 -7 -8z"/>
<path d="M1261 1092 c1 -28 5 -49 8 -46 6 6 1 87 -6 94 -2 2 -3 -19 -2 -48z"/>
<path d="M1412 1085 c0 -16 2 -22 5 -12 2 9 2 23 0 30 -3 6 -5 -1 -5 -18z"/>
<path d="M1452 1060 c0 -14 2 -19 5 -12 2 6 2 18 0 25 -3 6 -5 1 -5 -13z"/>
<path d="M1395 995 c-3 -31 -5 -59 -2 -61 3 -3 8 20 12 51 3 31 5 59 2 61 -3
3 -8 -20 -12 -51z"/>
<path d="M1442 1000 c0 -14 2 -19 5 -12 2 6 2 18 0 25 -3 6 -5 1 -5 -13z"/>
<path d="M1432 930 c0 -14 2 -19 5 -12 2 6 2 18 0 25 -3 6 -5 1 -5 -13z"/>
<path d="M1382 890 c0 -19 2 -27 5 -17 2 9 2 25 0 35 -3 9 -5 1 -5 -18z"/>
<path d="M1422 870 c0 -14 2 -19 5 -12 2 6 2 18 0 25 -3 6 -5 1 -5 -13z"/>
<path d="M1370 820 c0 -16 4 -30 8 -30 5 0 7 14 4 30 -2 17 -6 30 -8 30 -2 0
-4 -13 -4 -30z"/>
<path d="M1407 800 c-3 -11 -1 -20 4 -20 5 0 9 9 9 20 0 11 -2 20 -4 20 -2 0
-6 -9 -9 -20z"/>
<path d="M1703 1126 c12 -18 24 -29 26 -24 2 6 12 -3 22 -19 10 -15 19 -24 19
-20 0 15 -30 53 -59 75 l-30 22 22 -34z"/>
<path d="M1732 1060 c0 -14 2 -19 5 -12 2 6 2 18 0 25 -3 6 -5 1 -5 -13z"/>
<path d="M1716 1004 c-4 -14 -5 -28 -3 -31 3 -2 8 8 11 23 4 14 5 28 3 31 -3
2 -8 -8 -11 -23z"/>
<path d="M1686 915 c-9 -26 -7 -32 5 -12 6 10 9 21 6 23 -2 3 -7 -2 -11 -11z"/>
<path d="M1726 885 c-9 -26 -7 -32 5 -12 6 10 9 21 6 23 -2 3 -7 -2 -11 -11z"/>
<path d="M1641 839 c-21 -26 -26 -36 -14 -28 17 10 61 69 51 69 -2 0 -18 -19
-37 -41z"/>
<path d="M1695 824 c-9 -15 -12 -23 -6 -20 11 7 35 46 28 46 -3 0 -12 -12 -22
-26z"/>
<path d="M1618 783 c7 -3 16 -2 19 1 4 3 -2 6 -13 5 -11 0 -14 -3 -6 -6z"/>
<path d="M1816 2440 c-78 -53 -148 -124 -172 -175 -8 -18 -9 -22 -2 -11 61 90
117 141 244 223 11 6 16 12 12 12 -3 1 -40 -22 -82 -49z"/>
<path d="M1849 2413 c-13 -16 -12 -17 4 -4 9 7 17 15 17 17 0 8 -8 3 -21 -13z"/>
<path d="M1703 2268 c-15 -20 -25 -38 -20 -38 3 0 12 11 21 25 17 26 16 35 -1
13z"/>
<path d="M447 2224 c-4 -4 -7 -16 -7 -26 0 -13 7 -18 26 -18 21 0 25 4 22 22
-3 23 -27 35 -41 22z"/>
<path d="M1616 2215 c-3 -9 -6 -22 -5 -28 0 -7 5 -1 10 12 5 13 8 26 5 28 -2
2 -6 -3 -10 -12z"/>
<path d="M1601 2154 c0 -11 3 -14 6 -6 3 7 2 16 -1 19 -3 4 -6 -2 -5 -13z"/>
<path d="M1253 2144 c-3 -8 0 -27 6 -41 12 -26 12 -26 -26 -20 -50 8 -70 -3
-46 -25 10 -9 30 -20 46 -23 15 -4 27 -8 27 -10 0 -1 -7 -19 -15 -38 -23 -55
-17 -66 14 -27 l29 35 7 -30 c12 -53 27 -86 39 -82 13 4 14 71 2 105 -7 20 -5
23 11 19 10 -3 40 -9 68 -13 46 -6 49 -6 36 9 -7 10 -17 17 -22 17 -4 0 -20 5
-34 10 l-26 10 35 42 c20 23 36 48 36 55 0 26 -43 12 -82 -27 -22 -22 -42 -40
-44 -40 -2 0 -4 10 -4 23 0 25 -26 67 -41 67 -5 0 -12 -7 -16 -16z"/>
<path d="M1591 2114 c0 -11 3 -14 6 -6 3 7 2 16 -1 19 -3 4 -6 -2 -5 -13z"/>
<path d="M1570 2025 c-7 -36 -10 -68 -8 -70 3 -3 10 25 17 61 6 37 10 68 8 71
-3 2 -10 -26 -17 -62z"/>
<path d="M1621 2044 c0 -11 3 -14 6 -6 3 7 2 16 -1 19 -3 4 -6 -2 -5 -13z"/>
<path d="M1611 1994 c0 -11 3 -14 6 -6 3 7 2 16 -1 19 -3 4 -6 -2 -5 -13z"/>
<path d="M1601 1944 c0 -11 3 -14 6 -6 3 7 2 16 -1 19 -3 4 -6 -2 -5 -13z"/>
<path d="M696 1931 c-10 -16 5 -41 24 -41 19 0 30 17 23 38 -5 14 -39 16 -47
3z"/>
<path d="M1552 1920 c0 -14 2 -19 5 -12 2 6 2 18 0 25 -3 6 -5 1 -5 -13z"/>
<path d="M1591 1894 c0 -11 3 -14 6 -6 3 7 2 16 -1 19 -3 4 -6 -2 -5 -13z"/>
<path d="M1541 1875 c-1 -15 -29 -34 -107 -75 -58 -30 -108 -59 -111 -63 -5
-9 205 100 220 113 5 5 7 16 4 26 -4 17 -5 17 -6 -1z"/>
<path d="M1573 1840 c-11 -16 -10 -18 2 -14 8 4 15 12 15 20 0 19 -3 18 -17
-6z"/>
<path d="M170 1820 l-21 -29 -31 19 c-24 14 -35 16 -45 8 -20 -16 -16 -34 14
-56 l27 -19 -22 -28 c-43 -55 -11 -87 39 -39 l29 28 30 -22 c36 -27 46 -27 60
-2 8 16 5 23 -24 46 l-35 28 20 27 c10 15 19 37 19 48 0 31 -35 26 -60 -9z"/>
<path d="M1508 1804 c-39 -21 -35 -28 5 -8 37 19 44 24 31 24 -5 -1 -21 -8
-36 -16z"/>
<path d="M1398 1744 c-38 -20 -36 -28 2 -9 17 9 30 18 30 20 0 7 -1 6 -32 -11z"/>
<path d="M1220 1673 c-156 -104 -239 -205 -254 -308 -4 -29 -1 -22 12 22 32
107 93 176 242 276 41 27 79 54 85 58 23 21 -6 5 -85 -48z"/>
<path d="M1299 1679 l-24 -20 28 17 c15 9 27 18 27 20 0 8 -8 4 -31 -17z"/>
<path d="M1123 1538 c-38 -40 -77 -87 -87 -105 -26 -51 -18 -53 10 -3 14 25
55 75 92 113 36 37 64 67 61 67 -3 0 -37 -33 -76 -72z"/>
<path d="M553 1533 c-18 -7 -16 -28 3 -43 12 -11 18 -10 31 3 13 13 14 19 3
31 -13 17 -17 18 -37 9z"/>
<path d="M1011 1364 c0 -11 3 -14 6 -6 3 7 2 16 -1 19 -3 4 -6 -2 -5 -13z"/>
<path d="M1001 1324 c0 -11 3 -14 6 -6 3 7 2 16 -1 19 -3 4 -6 -2 -5 -13z"/>
<path d="M952 1295 c0 -16 2 -22 5 -12 2 9 2 23 0 30 -3 6 -5 -1 -5 -18z"/>
<path d="M992 1270 c0 -14 2 -19 5 -12 2 6 2 18 0 25 -3 6 -5 1 -5 -13z"/>
<path d="M943 1215 c0 -27 2 -38 4 -22 2 15 2 37 0 50 -2 12 -4 0 -4 -28z"/>
<path d="M982 1205 c0 -16 2 -22 5 -12 2 9 2 23 0 30 -3 6 -5 -1 -5 -18z"/>
<path d="M933 1125 c0 -22 2 -30 4 -17 2 12 2 30 0 40 -3 9 -5 -1 -4 -23z"/>
<path d="M972 1095 c0 -16 2 -22 5 -12 2 9 2 23 0 30 -3 6 -5 -1 -5 -18z"/>
<path d="M943 1035 c0 -22 2 -30 4 -17 2 12 2 30 0 40 -3 9 -5 -1 -4 -23z"/>
<path d="M982 990 c0 -14 2 -19 5 -12 2 6 2 18 0 25 -3 6 -5 1 -5 -13z"/>
<path d="M951 974 c0 -11 3 -14 6 -6 3 7 2 16 -1 19 -3 4 -6 -2 -5 -13z"/>
<path d="M994 611 c-36 -22 -65 -85 -63 -139 1 -34 2 -33 9 13 11 75 29 106
75 126 22 10 33 19 25 19 -8 0 -29 -9 -46 -19z"/>
<path d="M1392 595 c0 -16 2 -22 5 -12 2 9 2 23 0 30 -3 6 -5 -1 -5 -18z"/>
<path d="M1332 514 c-7 -37 -11 -68 -9 -71 6 -5 30 113 26 126 -3 7 -10 -18
-17 -55z"/>
<path d="M1382 530 c0 -14 2 -19 5 -12 2 6 2 18 0 25 -3 6 -5 1 -5 -13z"/>
<path d="M973 445 c0 -22 2 -30 4 -17 2 12 2 30 0 40 -3 9 -5 -1 -4 -23z"/>
<path d="M940 414 c0 -10 5 -26 10 -34 8 -11 9 -7 4 15 -8 37 -14 45 -14 19z"/>
<path d="M1316 413 c-6 -14 -5 -15 5 -6 7 7 10 15 7 18 -3 3 -9 -2 -12 -12z"/>
<path d="M1346 393 c-6 -14 -5 -15 5 -6 7 7 10 15 7 18 -3 3 -9 -2 -12 -12z"/>
<path d="M1314 348 l-19 -23 23 19 c21 18 27 26 19 26 -2 0 -12 -10 -23 -22z"/>
<path d="M1240 339 c-22 -18 -22 -19 -3 -10 12 6 25 16 28 21 9 15 3 12 -25
-11z"/>
</g>
</svg>
