<?xml version="1.0" standalone="no"?>
<!DOCTYPE svg PUBLIC "-//W3C//DTD SVG 20010904//EN"
 "http://www.w3.org/TR/2001/REC-SVG-20010904/DTD/svg10.dtd">
<svg version="1.0" xmlns="http://www.w3.org/2000/svg"
 width="288.000000pt" height="223.000000pt" viewBox="0 0 288.000000 223.000000"
 preserveAspectRatio="xMidYMid meet">

<g transform="translate(0.000000,223.000000) scale(0.100000,-0.100000)"
fill="#000000" stroke="none">
<path d="M765 2198 c-3 -13 -53 -257 -110 -542 -58 -286 -107 -521 -108 -522
-1 -2 -29 10 -62 27 -115 56 -208 49 -290 -23 -162 -143 -104 -382 101 -423
131 -26 248 19 327 125 24 34 37 90 128 556 55 286 102 525 105 532 3 9 9 10
23 3 11 -6 133 -33 271 -61 251 -50 343 -75 453 -124 50 -22 57 -29 52 -48 -2
-13 -7 -34 -9 -48 -5 -30 -159 -804 -160 -807 -1 -1 -30 12 -65 30 -149 73
-289 30 -360 -111 -60 -120 -10 -261 113 -318 63 -29 168 -32 242 -7 61 20
158 113 171 164 6 19 54 264 109 546 79 407 101 509 112 501 7 -6 15 -8 18 -6
3 3 14 50 25 104 25 121 20 135 -53 159 -29 10 -136 50 -238 91 -149 58 -241
87 -470 144 -157 39 -293 73 -302 76 -12 4 -19 -2 -23 -18z"/>
<path d="M505 1830 c-3 -5 -3 -14 0 -20 8 -13 -1 -13 -25 2 -28 18 -39 -1 -13
-22 22 -17 22 -18 3 -35 -24 -22 -18 -34 6 -14 16 13 17 11 11 -23 -7 -46 10
-51 24 -8 13 35 12 35 44 14 28 -19 33 -9 9 17 -16 17 -15 19 9 28 14 5 28 15
32 20 8 14 -30 14 -56 1 -17 -10 -19 -7 -19 20 0 29 -13 40 -25 20z"/>
<path d="M410 1578 c-11 -12 -28 -44 -38 -71 l-19 -49 -22 35 c-22 36 -52 54
-71 42 -19 -12 -10 -43 17 -63 l27 -20 -42 -13 c-83 -25 -75 -54 13 -47 l45 3
0 -59 c0 -66 14 -67 27 -2 l9 40 37 -53 c25 -35 44 -51 55 -49 25 6 17 46 -18
90 -35 43 -36 48 -12 48 10 0 43 7 72 16 46 13 51 18 36 26 -10 6 -38 8 -62 5
-24 -2 -44 -3 -44 0 0 2 9 31 20 64 27 78 14 104 -30 57z"/>
<path d="M2241 867 c-18 -23 -2 -49 28 -45 20 2 26 8 26 28 0 29 -34 40 -54
17z"/>
<path d="M2767 744 c-12 -12 -8 -41 7 -53 22 -18 58 4 54 32 -3 22 -45 36 -61
21z"/>
<path d="M1924 516 c-15 -12 -17 -18 -8 -33 15 -24 58 -24 62 0 4 18 -14 47
-27 47 -4 0 -16 -6 -27 -14z"/>
<path d="M2590 290 c-11 -11 -20 -23 -20 -27 0 -5 -7 -16 -14 -26 -13 -17 -16
-17 -59 4 -52 26 -77 20 -77 -16 0 -21 8 -30 44 -46 l44 -19 -21 -38 c-24 -45
-18 -72 17 -72 17 0 30 10 45 35 l21 36 44 -26 c40 -24 45 -24 60 -10 26 27
25 30 -43 82 l-23 19 21 34 c26 44 27 66 1 80 -15 8 -24 6 -40 -10z"/>
</g>
</svg>
